<?xml version="1.0" encoding="UTF-8" standalone="no"?> <svg xmlns="http://www.w3.org/2000/svg" xmlns:xlink="http://www.w3.org/1999/xlink" xmlns:serif="http://www.serif.com/" width="100%" height="100%" viewBox="0 0 358 244" xml:space="preserve" style="fill-rule:evenodd;clip-rule:evenodd;stroke-linejoin:round;stroke-miterlimit:1.41421;"><path d="M178.759,99.213c-17.975,0 -32.599,-14.625 -32.599,-32.598c0,-17.975 14.624,-32.6 32.599,-32.6c17.976,0 32.599,14.625 32.599,32.6c0,17.973 -14.623,32.598 -32.599,32.598Zm0,-63.256c-16.904,0 -30.658,13.752 -30.658,30.658c0,16.904 13.754,30.656 30.658,30.656c16.905,0 30.657,-13.752 30.657,-30.656c0.001,-16.906 -13.751,-30.658 -30.657,-30.658Z" style="fill:#6a1580;fill-rule:nonzero;"></path><path d="M178.759,103.467c-20.318,0 -36.85,-16.533 -36.85,-36.852c0,-20.32 16.531,-36.852 36.85,-36.852c20.319,0 36.851,16.531 36.851,36.852c0,20.318 -16.531,36.852 -36.851,36.852Zm0,-71.756c-19.245,0 -34.902,15.658 -34.902,34.904c0,19.246 15.657,34.904 34.902,34.904c19.245,0 34.905,-15.658 34.905,-34.904c0,-19.246 -15.66,-34.904 -34.905,-34.904Z" style="fill:#6a1580;fill-rule:nonzero;"></path><path d="M178.759,107.719c-22.664,0 -41.102,-18.439 -41.102,-41.104c0,-22.665 18.438,-41.104 41.102,-41.104c22.665,0 41.103,18.439 41.103,41.104c0,22.665 -18.438,41.104 -41.103,41.104Zm0,-80.254c-21.587,0 -39.149,17.562 -39.149,39.15c0,21.588 17.562,39.15 39.149,39.15c21.589,0 39.151,-17.562 39.151,-39.15c0,-21.588 -17.562,-39.15 -39.151,-39.15Z" style="fill:#6a1580;fill-rule:nonzero;"></path><path d="M178.759,111.969c-25.009,0 -45.354,-20.346 -45.354,-45.354c0,-25.01 20.345,-45.355 45.354,-45.355c25.009,0 45.354,20.346 45.354,45.355c0.001,25.008 -20.345,45.354 -45.354,45.354Zm0,-88.752c-23.929,0 -43.396,19.469 -43.396,43.398c0,23.928 19.468,43.396 43.396,43.396c23.931,0 43.397,-19.469 43.397,-43.396c0.001,-23.93 -19.466,-43.398 -43.397,-43.398Z" style="fill:#6a1580;fill-rule:nonzero;"></path><path d="M178.759,116.221c-27.353,0 -49.605,-22.254 -49.605,-49.605c0,-27.354 22.253,-49.607 49.605,-49.607c27.352,0 49.606,22.254 49.606,49.607c0.001,27.351 -22.253,49.605 -49.606,49.605Zm0,-97.252c-26.271,0 -47.646,21.373 -47.646,47.646c0,26.271 21.374,47.645 47.646,47.645c26.272,0 47.646,-21.373 47.646,-47.645c0,-26.273 -21.373,-47.646 -47.646,-47.646Z" style="fill:#6a1580;fill-rule:nonzero;"></path><path d="M178.759,120.472c-29.697,0 -53.857,-24.162 -53.857,-53.859c0,-29.697 24.16,-53.859 53.857,-53.859c29.698,0 53.858,24.162 53.858,53.859c0,29.697 -24.159,53.859 -53.858,53.859Zm0,-105.753c-28.615,0 -51.894,23.279 -51.894,51.895c0,28.617 23.278,51.896 51.894,51.896c28.614,0 51.896,-23.279 51.896,-51.896c0,-28.616 -23.281,-51.895 -51.896,-51.895Z" style="fill:#6a1580;fill-rule:nonzero;"></path><path d="M178.759,124.723c-32.042,0 -58.108,-26.067 -58.108,-58.11c0,-32.041 26.066,-58.109 58.108,-58.109c32.042,0 58.112,26.068 58.112,58.109c0.001,32.043 -26.07,58.11 -58.112,58.11Zm0,-114.254c-30.957,0 -56.143,25.186 -56.143,56.145c0,30.959 25.186,56.144 56.143,56.144c30.958,0 56.146,-25.185 56.146,-56.144c0,-30.959 -25.188,-56.145 -56.146,-56.145Z" style="fill:#6a1580;fill-rule:nonzero;"></path><path d="M178.759,128.973c-34.386,0 -62.361,-27.974 -62.361,-62.36c0,-34.386 27.976,-62.361 62.361,-62.361c34.385,0 62.362,27.975 62.362,62.361c0,34.386 -27.976,62.36 -62.362,62.36Zm0,-122.752c-33.301,0 -60.393,27.092 -60.393,60.393c0,33.303 27.092,60.392 60.393,60.392c33.302,0 60.394,-27.089 60.394,-60.392c0,-33.302 -27.092,-60.393 -60.394,-60.393Z" style="fill:#6a1580;fill-rule:nonzero;"></path><path d="M178.759,133.225c-36.73,0 -66.613,-29.88 -66.613,-66.612c0,-36.73 29.883,-66.613 66.613,-66.613c36.729,0 66.614,29.883 66.614,66.613c0.001,36.733 -29.884,66.612 -66.614,66.612Zm0,-131.124c-35.571,0 -64.511,28.941 -64.511,64.512c0,35.572 28.939,64.509 64.511,64.509c35.572,0 64.511,-28.937 64.511,-64.509c0,-35.57 -28.939,-64.512 -64.511,-64.512Z" style="fill:#6a1580;fill-rule:nonzero;"></path><path d="M178.76,94.959c-15.63,0 -28.347,-12.715 -28.347,-28.344c0,-15.631 12.717,-28.346 28.347,-28.346c15.629,0 28.346,12.715 28.346,28.346c0,15.629 -12.717,28.344 -28.346,28.344Zm0,-54.758c-14.565,0 -26.415,11.85 -26.415,26.414c0,14.564 11.85,26.412 26.415,26.412c14.564,0 26.414,-11.848 26.414,-26.412c0,-14.564 -11.849,-26.414 -26.414,-26.414Z" style="fill:#6a1580;fill-rule:nonzero;"></path><circle cx="178.759" cy="66.615" r="5.58" style="fill:#6a1580;"></circle><path d="M30.357,192.888c0,9.631 -5.805,15.908 -14.577,15.908c-8.17,0 -15.78,-6.105 -15.78,-16.426c0,-10.318 7.31,-16.512 15.78,-16.512c5.289,0 9.331,1.893 12.126,5.375l-3.311,3.27c-1.979,-2.537 -4.988,-4 -8.644,-4c-5.977,0 -10.965,4.43 -10.965,11.867c0,7.354 4.859,11.783 10.793,11.783c5.59,0 8.901,-3.225 9.46,-8.686l-10.233,0l0,-4.344l15.265,0c0.043,0.645 0.086,1.247 0.086,1.765Z" style="fill:#333;fill-rule:nonzero;"></path><path d="M59.575,200.886l-12.083,0l-2.924,7.352l-5.16,0l13.846,-32.291l0.774,0l13.803,32.291l-5.289,0l-2.967,-7.352Zm-6.064,-15.696l-4.601,11.566l9.245,0l-4.644,-11.566Z" style="fill:#333;fill-rule:nonzero;"></path><path d="M96.804,208.237l-11.695,-15.479l0,15.479l-4.816,0l0,-31.775l10.19,0c7.182,0 11.567,3.225 11.567,9.33c0,5.461 -3.483,8.514 -9.804,9.072l10.534,13.373l-5.976,0Zm-7.783,-17.027c5.504,0 7.998,-1.678 7.998,-5.246c0,-3.396 -2.235,-5.16 -6.88,-5.16l-5.03,0l0,10.406l3.912,0Z" style="fill:#333;fill-rule:nonzero;"></path><path d="M134.39,200.886l-12.083,0l-2.924,7.352l-5.16,0l13.846,-32.291l0.774,0l13.803,32.291l-5.289,0l-2.967,-7.352Zm-6.063,-15.696l-4.601,11.566l9.245,0l-4.644,-11.566Z" style="fill:#333;fill-rule:nonzero;"></path><path d="M183.659,208.237l-3.354,-19.479l-8.686,19.564l-0.773,0l-8.729,-19.521l-3.396,19.436l-4.816,0l5.892,-32.291l0.902,0l10.535,23.605l10.534,-23.605l0.946,0l5.762,32.291l-4.817,0Z" style="fill:#333;fill-rule:nonzero;"></path><path d="M219.899,200.886l-12.083,0l-2.924,7.352l-5.16,0l13.846,-32.291l0.774,0l13.803,32.291l-5.289,0l-2.967,-7.352Zm-6.063,-15.696l-4.601,11.566l9.245,0l-4.644,-11.566Z" style="fill:#333;fill-rule:nonzero;"></path><path d="M265.642,176.462l0,32.248l-0.902,0l-19.307,-21.713l0,21.24l-4.816,0l0,-32.291l0.903,0l19.264,21.799l0,-21.283l4.858,0Z" style="fill:#333;fill-rule:nonzero;"></path><path d="M288.535,180.847l-9.718,0l0,-4.385l24.252,0l0,4.385l-9.718,0l0,27.391l-4.816,0l0,-27.391Z" style="fill:#333;fill-rule:nonzero;"></path><rect x="316.245" y="176.462" width="4.816" height="31.775" style="fill:#333;fill-rule:nonzero;"></rect><path d="M334.472,204.024l2.924,-3.613c2.666,2.58 5.633,3.871 8.858,3.871c3.999,0 6.32,-1.893 6.32,-4.816c0,-7.396 -16.984,-2.236 -16.984,-14.189c0,-5.461 4.558,-9.373 11.352,-9.373c4.558,0 7.955,1.762 10.234,3.998l-2.752,3.525c-1.936,-1.891 -4.301,-3.053 -7.482,-3.053c-4.042,0 -6.45,1.936 -6.45,4.773c0,7.137 17.028,2.322 17.028,13.932c0,5.934 -4.559,9.717 -11.352,9.717c-5.46,0 -9.116,-2.278 -11.696,-4.772Z" style="fill:#333;fill-rule:nonzero;"></path><rect x="0" y="228.946" width="0.682" height="14.002" style="fill:#333;fill-rule:nonzero;"></rect><path d="M19.438,228.946l0,14.115l-0.265,0l-9.814,-12.617l0,12.504l-0.682,0l0,-14.115l0.265,0l9.814,12.6l0,-12.486l0.682,0l0,-0.001Z" style="fill:#333;fill-rule:nonzero;"></path><path d="M31.015,229.591l-4.926,0l0,-0.645l10.516,0l0,0.645l-4.926,0l0,13.357l-0.664,0l0,-13.357Z" style="fill:#333;fill-rule:nonzero;"></path><path d="M51.307,242.306l0,0.643l-8.052,0l0,-14.002l7.844,0l0,0.645l-7.162,0l0,5.893l6.877,0l0,0.645l-6.877,0l0,6.178l7.37,0l0,-0.002Z" style="fill:#333;fill-rule:nonzero;"></path><path d="M61.442,236.374l-2.16,0l0,6.574l-0.682,0l0,-14.002l3.694,0c0.96,0 1.781,0.148 2.463,0.447c0.683,0.297 1.207,0.721 1.573,1.279c0.366,0.555 0.549,1.217 0.549,1.988c0,1.174 -0.397,2.082 -1.193,2.719c-0.795,0.637 -1.92,0.969 -3.373,0.994l4.851,6.574l-0.929,0l-4.793,-6.573Zm0.702,-0.645c1.313,0 2.314,-0.262 3.003,-0.787c0.688,-0.521 1.033,-1.283 1.033,-2.281c0,-0.986 -0.338,-1.744 -1.014,-2.273c-0.676,-0.531 -1.633,-0.797 -2.871,-0.797l-3.012,0l0,6.139l2.861,0l0,-0.001Z" style="fill:#333;fill-rule:nonzero;"></path><path d="M80.92,238.421l-6.404,0l-1.743,4.527l-0.739,0l5.589,-14.133l0.208,0l5.589,14.133l-0.739,0l-1.761,-4.527Zm-3.202,-8.203l-2.956,7.539l5.893,0l-2.937,-7.539Z" style="fill:#333;fill-rule:nonzero;"></path><path d="M91.549,242.143c-0.998,-0.625 -1.781,-1.48 -2.35,-2.568c-0.568,-1.084 -0.853,-2.291 -0.853,-3.617c0,-1.34 0.287,-2.551 0.862,-3.639c0.575,-1.086 1.368,-1.938 2.378,-2.557c1.01,-0.619 2.154,-0.93 3.429,-0.93c1.112,0 2.109,0.219 2.994,0.654c0.884,0.436 1.61,1.051 2.179,1.848l-0.531,0.436c-0.493,-0.732 -1.14,-1.297 -1.941,-1.695c-0.802,-0.398 -1.702,-0.598 -2.7,-0.598c-1.162,0 -2.195,0.285 -3.098,0.852c-0.903,0.57 -1.607,1.346 -2.112,2.332c-0.505,0.984 -0.758,2.084 -0.758,3.297c0,1.199 0.252,2.293 0.758,3.277c0.505,0.986 1.206,1.762 2.103,2.33c0.896,0.568 1.895,0.854 2.994,0.854c1.073,0 2.021,-0.229 2.842,-0.682c0.821,-0.455 1.484,-1.094 1.989,-1.914l0.531,0.416c-0.556,0.896 -1.295,1.596 -2.217,2.094c-0.922,0.5 -1.983,0.748 -3.183,0.748c-1.213,0 -2.319,-0.313 -3.316,-0.938Z" style="fill:#333;fill-rule:nonzero;"></path><path d="M110.439,229.591l-4.926,0l0,-0.645l10.515,0l0,0.645l-4.926,0l0,13.357l-0.663,0l0,-13.357Z" style="fill:#333;fill-rule:nonzero;"></path><rect x="122.678" y="228.946" width="0.683" height="14.002" style="fill:#333;fill-rule:nonzero;"></rect><path d="M141.075,228.946l-5.685,14.115l-0.265,0l-5.665,-14.115l0.738,0l5.078,12.846l5.059,-12.846l0.74,0Z" style="fill:#333;fill-rule:nonzero;"></path><path d="M155.228,242.306l0,0.643l-8.052,0l0,-14.002l7.844,0l0,0.645l-7.162,0l0,5.893l6.878,0l0,0.645l-6.878,0l0,6.178l7.37,0l0,-0.002Z" style="fill:#333;fill-rule:nonzero;"></path><path d="M173.965,229.591l-4.926,0l0,-0.645l10.516,0l0,0.645l-4.926,0l0,13.357l-0.664,0l0,-13.357Z" style="fill:#333;fill-rule:nonzero;"></path><path d="M194.256,242.306l0,0.643l-8.051,0l0,-14.002l7.844,0l0,0.645l-7.162,0l0,5.893l6.877,0l0,0.645l-6.877,0l0,6.178l7.369,0l0,-0.002Z" style="fill:#333;fill-rule:nonzero;"></path><path d="M203.372,242.143c-0.998,-0.625 -1.781,-1.48 -2.35,-2.568c-0.568,-1.084 -0.854,-2.291 -0.854,-3.617c0,-1.34 0.287,-2.551 0.863,-3.639c0.574,-1.086 1.367,-1.938 2.377,-2.557c1.012,-0.619 2.154,-0.93 3.43,-0.93c1.111,0 2.109,0.219 2.994,0.654c0.883,0.436 1.609,1.051 2.178,1.848l-0.529,0.436c-0.492,-0.732 -1.141,-1.297 -1.943,-1.695c-0.801,-0.398 -1.701,-0.598 -2.699,-0.598c-1.162,0 -2.195,0.285 -3.098,0.852c-0.904,0.57 -1.607,1.346 -2.113,2.332c-0.504,0.984 -0.758,2.084 -0.758,3.297c0,1.199 0.254,2.293 0.758,3.277c0.506,0.986 1.207,1.762 2.104,2.33c0.897,0.568 1.895,0.854 2.994,0.854c1.072,0 2.021,-0.229 2.842,-0.682c0.82,-0.455 1.484,-1.094 1.99,-1.914l0.529,0.416c-0.557,0.896 -1.295,1.596 -2.217,2.094c-0.922,0.5 -1.982,0.748 -3.184,0.748c-1.211,0 -2.318,-0.313 -3.314,-0.938Z" style="fill:#333;fill-rule:nonzero;"></path><path d="M228.493,228.946l0,14.002l-0.682,0l0,-6.82l-8.299,0l0,6.82l-0.682,0l0,-14.002l0.682,0l0,6.537l8.299,0l0,-6.537l0.682,0Z" style="fill:#333;fill-rule:nonzero;"></path><path d="M247.251,228.946l0,14.115l-0.266,0l-9.814,-12.617l0,12.504l-0.682,0l0,-14.115l0.266,0l9.814,12.6l0,-12.486l0.682,0l0,-0.001Z" style="fill:#333;fill-rule:nonzero;"></path><path d="M257.52,242.163c-1.023,-0.625 -1.832,-1.48 -2.426,-2.568c-0.594,-1.086 -0.889,-2.299 -0.889,-3.637c0,-1.352 0.293,-2.57 0.881,-3.656c0.586,-1.088 1.395,-1.943 2.424,-2.568c1.029,-0.625 2.182,-0.938 3.459,-0.938c1.262,0 2.406,0.312 3.428,0.938c1.023,0.625 1.832,1.484 2.426,2.578c0.594,1.092 0.891,2.307 0.891,3.646c0,1.338 -0.293,2.551 -0.881,3.637c-0.588,1.088 -1.396,1.943 -2.426,2.568c-1.03,0.625 -2.182,0.938 -3.457,0.938c-1.264,-0.001 -2.406,-0.313 -3.43,-0.938Zm6.527,-0.551c0.928,-0.561 1.654,-1.338 2.178,-2.33c0.525,-0.99 0.787,-2.1 0.787,-3.324c0,-1.227 -0.266,-2.338 -0.797,-3.336c-0.529,-0.996 -1.256,-1.777 -2.178,-2.34c-0.922,-0.561 -1.945,-0.842 -3.068,-0.842c-1.139,0 -2.17,0.281 -3.098,0.842c-0.93,0.562 -1.656,1.34 -2.18,2.332c-0.523,0.99 -0.787,2.105 -0.787,3.344c0,1.225 0.266,2.334 0.797,3.324c0.531,0.992 1.256,1.77 2.18,2.33c0.92,0.562 1.943,0.844 3.068,0.844c1.137,0 2.169,-0.281 3.098,-0.844Z" style="fill:#333;fill-rule:nonzero;"></path><path d="M281.676,242.306l0,0.643l-6.916,0l0,-14.002l0.684,0l0,13.359l6.232,0Z" style="fill:#333;fill-rule:nonzero;"></path><path d="M289.54,242.163c-1.023,-0.625 -1.832,-1.48 -2.426,-2.568c-0.594,-1.086 -0.891,-2.299 -0.891,-3.637c0,-1.352 0.295,-2.57 0.881,-3.656c0.588,-1.088 1.396,-1.943 2.426,-2.568c1.03,-0.625 2.182,-0.938 3.457,-0.938c1.264,0 2.406,0.312 3.43,0.938c1.024,0.626 1.832,1.484 2.426,2.578c0.594,1.092 0.891,2.307 0.891,3.646c0,1.338 -0.295,2.551 -0.881,3.637c-0.588,1.088 -1.396,1.943 -2.426,2.568c-1.03,0.625 -2.182,0.938 -3.457,0.938c-1.264,-0.001 -2.407,-0.313 -3.43,-0.938Zm6.527,-0.551c0.928,-0.561 1.654,-1.338 2.178,-2.33c0.525,-0.99 0.787,-2.1 0.787,-3.324c0,-1.227 -0.266,-2.338 -0.797,-3.336c-0.529,-0.996 -1.256,-1.777 -2.178,-2.34c-0.922,-0.561 -1.945,-0.842 -3.07,-0.842c-1.137,0 -2.17,0.281 -3.098,0.842c-0.928,0.562 -1.654,1.34 -2.178,2.332c-0.525,0.99 -0.787,2.105 -0.787,3.344c0,1.225 0.266,2.334 0.797,3.324c0.529,0.992 1.256,1.77 2.178,2.33c0.922,0.562 1.945,0.844 3.07,0.844c1.135,0 2.168,-0.281 3.098,-0.844Z" style="fill:#333;fill-rule:nonzero;"></path><path d="M318.754,235.975l0,0.266c0,1.326 -0.258,2.508 -0.775,3.543c-0.52,1.035 -1.254,1.846 -2.207,2.426c-0.955,0.582 -2.057,0.871 -3.307,0.871c-1.25,0 -2.381,-0.312 -3.393,-0.938c-1.01,-0.625 -1.803,-1.48 -2.377,-2.568c-0.574,-1.084 -0.861,-2.291 -0.861,-3.617c0,-1.326 0.283,-2.537 0.852,-3.629c0.569,-1.092 1.365,-1.955 2.387,-2.586c1.023,-0.631 2.186,-0.947 3.486,-0.947c1.15,0 2.186,0.225 3.107,0.672c0.922,0.449 1.668,1.084 2.236,1.904l-0.475,0.473c-0.492,-0.758 -1.162,-1.348 -2.008,-1.77c-0.846,-0.424 -1.793,-0.635 -2.842,-0.635c-1.188,0 -2.238,0.287 -3.154,0.861c-0.916,0.574 -1.627,1.359 -2.131,2.35c-0.506,0.992 -0.76,2.094 -0.76,3.307c0,1.199 0.254,2.295 0.76,3.287c0.504,0.992 1.205,1.771 2.102,2.34c0.897,0.569 1.92,0.854 3.07,0.854c1.111,0 2.084,-0.244 2.918,-0.73c0.832,-0.486 1.482,-1.172 1.951,-2.057c0.467,-0.883 0.713,-1.895 0.738,-3.031l-5.949,0l0,-0.645l6.632,0l0,-0.001Z" style="fill:#333;fill-rule:nonzero;"></path><rect x="325.594" y="228.946" width="0.682" height="14.002" style="fill:#333;fill-rule:nonzero;"></rect><path d="M342.325,242.306l0,0.643l-8.053,0l0,-14.002l7.844,0l0,0.645l-7.162,0l0,5.893l6.879,0l0,0.645l-6.879,0l0,6.178l7.371,0l0,-0.002Z" style="fill:#333;fill-rule:nonzero;"></path><path d="M350.235,242.579c-0.814,-0.334 -1.5,-0.787 -2.057,-1.355l0.436,-0.512c0.557,0.531 1.207,0.949 1.951,1.252c0.746,0.303 1.529,0.455 2.352,0.455c0.744,0 1.414,-0.127 2.008,-0.379c0.594,-0.254 1.057,-0.617 1.393,-1.09c0.334,-0.475 0.502,-1.025 0.502,-1.658c0,-0.682 -0.178,-1.225 -0.531,-1.629c-0.353,-0.404 -0.789,-0.701 -1.307,-0.891c-0.518,-0.19 -1.227,-0.391 -2.123,-0.605c-0.947,-0.215 -1.715,-0.438 -2.303,-0.664c-0.586,-0.227 -1.078,-0.58 -1.477,-1.062c-0.396,-0.479 -0.596,-1.129 -0.596,-1.949c0,-0.709 0.199,-1.34 0.596,-1.895c0.398,-0.557 0.947,-0.992 1.648,-1.309c0.701,-0.314 1.48,-0.473 2.34,-0.473c0.86,0 1.664,0.15 2.416,0.453c0.75,0.305 1.367,0.701 1.848,1.195l-0.418,0.512c-0.441,-0.467 -1,-0.842 -1.676,-1.119c-0.676,-0.277 -1.4,-0.416 -2.17,-0.416c-0.732,0 -1.396,0.129 -1.988,0.387c-0.594,0.26 -1.059,0.619 -1.395,1.08c-0.334,0.463 -0.502,0.99 -0.502,1.584c0,0.656 0.178,1.18 0.531,1.57c0.354,0.393 0.789,0.684 1.307,0.873c0.518,0.189 1.221,0.391 2.104,0.605c0.961,0.229 1.73,0.455 2.312,0.684c0.58,0.227 1.072,0.58 1.477,1.061c0.405,0.481 0.607,1.137 0.607,1.969c0,0.771 -0.199,1.443 -0.598,2.02c-0.398,0.574 -0.947,1.02 -1.648,1.336c-0.701,0.316 -1.494,0.473 -2.377,0.473c-0.961,-0.001 -1.848,-0.169 -2.662,-0.503Z" style="fill:#333;fill-rule:nonzero;"></path></svg> 