<?xml version="1.0" encoding="UTF-8"?> <!-- Generator: Adobe Illustrator 25.0.0, SVG Export Plug-In . SVG Version: 6.00 Build 0) --> <svg xmlns="http://www.w3.org/2000/svg" xmlns:xlink="http://www.w3.org/1999/xlink" version="1.1" id="Ebene_1" x="0px" y="0px" viewBox="0 0 100 100" xml:space="preserve"> <g> <path fill="#FFFFFF" d="M50,22.26C34.7,22.26,22.26,34.7,22.26,50S34.7,77.74,50,77.74S77.74,65.3,77.74,50S65.3,22.26,50,22.26z M50,76.24c-14.47,0-26.24-11.77-26.24-26.24S35.53,23.76,50,23.76S76.24,35.53,76.24,50S64.47,76.24,50,76.24z"></path> <path fill="#FFFFFF" d="M44.94,51.94c0.04,0.02,0.08,0.04,0.13,0.05c0.25,0.06,0.51,0.02,0.73-0.13c0.35-0.24,0.47-0.69,0.31-1.07 l-1.13-4.09l3.06-3c0.12-0.12,0.22-0.36,0.24-0.52c0.02-0.2-0.07-0.49-0.19-0.64c-0.13-0.15-0.4-0.3-0.59-0.32l-3.68-0.37 l-2.11-3.73c-0.09-0.16-0.24-0.29-0.42-0.34c-0.31-0.1-0.64-0.02-0.88,0.2c-0.07,0.06-0.12,0.14-0.16,0.22l-1.85,3.83l-4,0.37 c-0.17,0.02-0.4,0.13-0.53,0.24c-0.14,0.14-0.26,0.42-0.27,0.62c0,0.2,0.12,0.49,0.26,0.64l2.93,2.89l-0.63,4.24 c-0.02,0.15,0.02,0.39,0.1,0.52c0.11,0.21,0.3,0.36,0.52,0.43c0.07,0.02,0.15,0.03,0.23,0.03c0.16,0,0.32-0.03,0.44-0.09l3.52-1.85 L44.94,51.94z M40.55,48.6l-2.72,1.43l0.48-3.25c0.04-0.18,0.03-0.36-0.03-0.54c-0.04-0.1-0.1-0.19-0.17-0.27l-2.24-2.2l3.07-0.28 c0.3-0.05,0.56-0.26,0.66-0.49l1.44-2.99l1.62,2.86c0.13,0.24,0.37,0.4,0.68,0.45l2.68,0.27l-2.38,2.33 c-0.06,0.05-0.1,0.12-0.14,0.19c-0.12,0.23-0.14,0.49-0.05,0.73l0.88,3.17l-3.02-1.42C41.08,48.48,40.83,48.48,40.55,48.6z"></path> <path fill="#FFFFFF" d="M65.85,42.22l-3.68-0.37l-2.1-3.73c-0.03-0.05-0.06-0.09-0.1-0.14c-0.29-0.32-0.79-0.38-1.15-0.14 c-0.11,0.07-0.2,0.18-0.25,0.29l-1.85,3.83l-4.05,0.37c-0.15,0.03-0.37,0.14-0.48,0.25c-0.14,0.14-0.26,0.42-0.26,0.62 c0,0.2,0.12,0.48,0.26,0.63l2.92,2.89L54.5,51c-0.02,0.15,0.03,0.38,0.09,0.51c0.09,0.18,0.33,0.38,0.52,0.43 c0.07,0.02,0.15,0.03,0.23,0.03c0.16,0,0.32-0.03,0.44-0.09l3.51-1.86l3.97,1.88c0.15,0.07,0.42,0.1,0.59,0.05 c0.47-0.12,0.75-0.6,0.63-1.08l-1.15-4.16l3.05-2.99c0.12-0.12,0.23-0.36,0.25-0.53c0.02-0.2-0.07-0.49-0.19-0.64 C66.32,42.39,66.05,42.24,65.85,42.22z M62.01,45.91c-0.06,0.05-0.1,0.12-0.14,0.19c-0.12,0.23-0.13,0.49-0.05,0.73l0.87,3.13 l-3.07-1.45c-0.21-0.08-0.45-0.08-0.74,0.04l-2.71,1.43l0.48-3.25c0.04-0.18,0.03-0.37-0.04-0.54c-0.04-0.1-0.1-0.19-0.17-0.26 l-2.23-2.2l3.07-0.28c0.3-0.05,0.56-0.26,0.65-0.49l1.45-3l1.65,2.93c0.13,0.24,0.37,0.4,0.68,0.44l2.68,0.27L62.01,45.91z"></path> <path fill="#FFFFFF" d="M50.17,56.29c-0.01,0-0.02,0-0.03,0c-11.41,0-11.63,1.03-11.75,1.58c-0.43,2.07,0.47,4.32,2.84,7.05 c2.17,2.52,6.3,3.8,8.53,3.91c0.01,0,0.02,0,0.04,0l0.78,0c2.18-0.11,6.39-1.43,8.53-3.91c2.37-2.74,3.27-4.98,2.84-7.06 C61.82,57.31,61.6,56.29,50.17,56.29z M57.96,63.94c-1.77,2.06-5.48,3.29-7.43,3.39h-0.72c-1.99-0.1-5.68-1.33-7.45-3.39 c-1.93-2.23-2.74-3.99-2.55-5.51c2.28-0.84,18.41-0.84,20.7,0C60.71,59.95,59.89,61.71,57.96,63.94z"></path> </g> </svg> 