<?xml version="1.0" encoding="UTF-8"?> <!-- Generator: Adobe Illustrator 25.0.0, SVG Export Plug-In . SVG Version: 6.00 Build 0) --> <svg xmlns="http://www.w3.org/2000/svg" xmlns:xlink="http://www.w3.org/1999/xlink" version="1.1" id="Ebene_1" x="0px" y="0px" viewBox="0 0 100 100" xml:space="preserve"> <g> <circle fill="#FFFFFF" cx="56.8" cy="44.51" r="1.63"></circle> <path fill="#FFFFFF" d="M67.33,58.92c0.12,0.39,0.54,0.61,0.94,0.49c0.11,0.01,0.39,0.17,0.57,0.56c0.12,0.25,0.26,0.73-0.15,1.16 c-0.29,0.3-0.28,0.77,0.02,1.06c0.15,0.14,0.33,0.21,0.52,0.21c0.2,0,0.39-0.08,0.54-0.23c0.82-0.85,0.92-2.08,0.27-3.12 c-0.55-0.88-1.45-1.31-2.23-1.06C67.43,58.11,67.21,58.53,67.33,58.92z"></path> <path fill="#FFFFFF" d="M81.88,29.3c-0.96-1.31-5.98,0.29-14.92,4.76c1.29-3.04,1.79-8.38-3.79-11.76 c-3.95-2.38-8.89-2.23-12.68,0.35c-2.73-0.61-5.59,0.1-7.73,1.94c-0.55,0.5-1.06,1.03-1.55,1.58c-2.55,0.1-4.97,0.97-7.03,2.55 c-1.09,0.94-1.94,2.06-2.6,3.19c-2.05,0.08-4.04,0.88-5.56,2.28c-1.21,1.04-2.12,2.34-2.79,3.63c-1.51,0.24-2.91,1.02-3.86,2.18 c-1.22,1.31-1.71,5.11-1.32,10.18c0.7,6.82,3.11,13.42,6.97,19.08c2.81,4.13,8.5,10.11,12.77,10.11c0.36,0,0.71-0.04,1.05-0.13 c7.37-2.08,10.76-17.72,11.3-20.47c0.8,0.13,1.6,0.23,2.4,0.3c0.83,1.01,3.91,4.67,6.35,6.38c1.93,1.25,4.16,1.88,6.39,1.88 c1.84,0,3.69-0.43,5.38-1.3c2.5-1.36,3.9-4.54,3.85-8.8c0-0.46-0.73-2.35-5.04-12.65l-0.81-1.93 C83.49,31.52,82.28,29.85,81.88,29.3z M20.49,40.99c0.52-0.63,1.19-1.09,1.94-1.38c-0.8,2.11-1.04,3.87-1.05,4 c-0.05,0.41,0.24,0.78,0.65,0.84c0.03,0,0.06,0.01,0.09,0.01c0.37,0,0.7-0.28,0.74-0.66c0.01-0.06,0.72-5.54,4.14-8.48 c1.06-0.97,2.36-1.59,3.75-1.81c-1.01,2.26-1.32,4.21-1.35,4.35c-0.06,0.41,0.22,0.79,0.63,0.85c0.04,0.01,0.08,0.01,0.11,0.01 c0.36,0,0.68-0.27,0.74-0.64c0.01-0.05,0.84-5.29,4.22-8.19c1.41-1.07,3.02-1.77,4.74-2.07c-1.32,1.78-2.37,3.76-3.1,5.86 c-0.14,0.39,0.07,0.82,0.46,0.96c0.39,0.14,0.82-0.07,0.96-0.46c1.13-3.23,3.06-6.16,5.58-8.45c1.84-1.59,4.35-2.16,6.7-1.53 c0.22,0.06,0.45,0.01,0.63-0.12c3.34-2.42,7.78-2.62,11.31-0.49c5.21,3.16,4.11,8.36,2.81,10.67c-0.24,0.43-0.51,0.81-0.79,1.16 c-0.02,0.02-0.03,0.04-0.05,0.06c-0.89,1.07-1.96,1.74-3.09,1.9c-1.25,0.18-2.53-0.26-3.52-1.21c-1.37-1.31-1.44-2.9-1.04-3.96 c0.05-0.12,0.1-0.24,0.16-0.35c0.01-0.02,0.02-0.04,0.03-0.06c0.48-0.87,1.34-1.4,2.36-1.45c0.79-0.03,1.33,0.19,1.59,0.61 c0.18,0.3,0.17,0.65,0.07,0.82c-0.04,0.07-0.05,0.06-0.09,0.07c-0.37-0.02-0.76,0.31-0.78,0.72c-0.01,0.41,0.31,0.76,0.72,0.78 c0.57,0.03,1.12-0.27,1.43-0.8c0.4-0.68,0.38-1.61-0.07-2.35c-0.32-0.53-1.11-1.42-2.94-1.34c-1.43,0.06-2.67,0.79-3.42,1.93 l-2.4,0.02c0.12-1.25,0.25-2.55,0.35-3.65c0.01-0.13-0.01-0.26-0.06-0.38c-0.24-0.53-0.67-0.93-1.21-1.13 c-0.54-0.2-1.13-0.19-1.65,0.05c-0.11,0.05-0.21,0.11-0.32,0.18c-1.45,1-2.67,2.25-3.63,3.72c-0.02,0.03-0.04,0.07-0.06,0.11 c-0.19,0.43-0.34,1.23-0.33,2.15c-1.14,0.37-4.31,1.78-11.22,7.12L19.66,50.98c-0.04-0.31-0.09-0.62-0.13-0.94 C19.14,44.93,19.71,41.83,20.49,40.99z M73,57.33c0.02,1.71-0.24,5.84-3.05,7.37c-3.25,1.67-7.18,1.47-10.23-0.51 c-2.59-1.81-6.19-6.28-6.22-6.32c-0.13-0.16-0.32-0.26-0.53-0.28c-1.13-0.08-2.27-0.22-3.36-0.43c-0.93-0.19-5.59-1.3-6.33-4.67 c-0.44-2.01-0.44-4.14,0-6.15c0.09-0.4-0.17-0.8-0.57-0.89c-0.4-0.09-0.8,0.17-0.89,0.57c-0.49,2.22-0.49,4.57,0,6.79 c0.81,3.7,5.03,5.19,6.85,5.66c-0.51,2.55-3.78,17.5-10.22,19.31c-3.21,0.87-9.14-4.89-12.19-9.38 c-3.22-4.73-5.39-10.14-6.35-15.77c0.06-0.03,0.12-0.05,0.18-0.1l16.08-12.42c6.28-4.85,9.35-6.34,10.49-6.77 c0.24,1.01,0.72,2,1.62,2.71c0.14,0.11,0.3,0.16,0.47,0.16c0.22,0,0.44-0.1,0.59-0.28c0.26-0.32,0.2-0.8-0.12-1.05 c-1.52-1.21-1.33-3.83-1.05-4.56c0.85-1.28,1.92-2.37,3.18-3.24c0.03-0.02,0.06-0.04,0.1-0.05c0.16-0.07,0.34-0.08,0.5-0.02 c0.11,0.04,0.21,0.11,0.28,0.2c-0.3,3.09-0.78,8.01-0.78,8.25c0,0.41,0.33,0.73,0.73,0.74c0,0,0.01,0,0.02,0 c0.4,0,0.73-0.32,0.75-0.72c0.01-0.16,0.13-1.51,0.3-3.21l1.9-0.01c-0.4,1.74,0.18,3.63,1.58,4.96c1.12,1.08,2.55,1.67,4,1.67 c0.26,0,0.52-0.02,0.77-0.06c1.07-0.16,2.08-0.64,2.98-1.38c0.39,0.54,1.15,1.81,2.34,4.67l1.26,3.02 C69.86,49.44,72.86,56.58,73,57.33z M68.05,41.23c-1.17-2.77-1.97-4.12-2.48-4.78c6.05-3.1,13.08-6.17,14.92-6.19 C79.62,31.91,73.66,36.99,68.05,41.23z"></path> </g> </svg> 