<?xml version="1.0" encoding="UTF-8"?> <!-- Generator: Adobe Illustrator 25.0.0, SVG Export Plug-In . SVG Version: 6.00 Build 0) --> <svg xmlns="http://www.w3.org/2000/svg" xmlns:xlink="http://www.w3.org/1999/xlink" version="1.1" id="Ebene_1" x="0px" y="0px" viewBox="0 0 100 100" xml:space="preserve"> <g> <path fill="#FFFFFF" d="M29.11,61.02c1.4-0.2,2.8-0.9,4-1.9c2.6-2.3,3.3-5.6,1.6-7.5c-0.8-0.9-2.1-1.3-3.6-1.2 c-1.4,0.2-2.8,0.9-4,1.9c-2.6,2.4-3.3,5.6-1.6,7.5c0.7,0.8,1.7,1.2,2.9,1.2C28.61,61.02,28.91,61.02,29.11,61.02z M26.61,58.92 c-1.1-1.3-0.4-3.7,1.5-5.4c1-0.9,2.1-1.4,3.2-1.6c0.2,0,0.3,0,0.5,0c0.8,0,1.4,0.2,1.8,0.7c1.1,1.2,0.4,3.7-1.5,5.4 c-1,0.9-2.1,1.4-3.2,1.6C27.91,59.72,27.11,59.52,26.61,58.92z"></path> <path fill="#FFFFFF" d="M73.81,45.02c0-0.2-0.1-0.4-0.2-0.5l-7.9-8.7c-0.1-0.1-0.3-0.2-0.5-0.2s-0.4,0.1-0.5,0.2l-18.3,16.4 l-5.5-6.1l-0.1-0.1c-3.6-4-11.4-3-17.3,2.3c-2.8,2.5-4.8,5.7-5.6,8.8c-0.8,3.2-0.3,6.1,1.5,8.1l8.6,9.6c1.1,1,2.3,1.9,4.7,1.9 c1,0,2.3-0.2,3.9-0.6c3-0.8,4.8-1.9,6.7-3.4c0.7-0.6,1.5-1.2,2.3-2l28-25.2C73.71,45.42,73.81,45.22,73.81,45.02z M42.71,50.22 l2.6,3l-3.9,3.5C42.41,54.52,42.91,52.22,42.71,50.22z M19.31,57.42c0.7-2.9,2.6-5.7,5.2-8.1c5.3-4.7,12-5.8,15.1-2.4l0.1,0.1 c2.9,3.4,1.1,10-4,14.7l-0.1,0.1c-2.6,2.3-5.6,3.9-8.6,4.3c-2.7,0.4-5-0.3-6.5-1.9S18.61,60.22,19.31,57.42z M70.01,46.82l-3.7-4.2 c-0.3-0.3-0.8-0.3-1.1-0.1c-0.3,0.3-0.3,0.8-0.1,1.1l3.7,4.2l-2.1,1.9l-2.3-2.5c-0.3-0.3-0.8-0.3-1.1-0.1c-0.3,0.3-0.3,0.8-0.1,1.1 l2.3,2.5l-2,1.9l-3.9-4.4c-0.3-0.3-0.8-0.3-1.1-0.1c-0.3,0.3-0.3,0.8-0.1,1.1l3.9,4.3l-2.6,2.3l-2.2-2.4c-0.3-0.3-0.8-0.3-1.1-0.1 c-0.3,0.3-0.3,0.8-0.1,1.1l2.3,2.5l-1.9,1.7l-3.9-4.3c-0.3-0.3-0.8-0.3-1.1-0.1c-0.3,0.3-0.3,0.8-0.1,1.1l3.9,4.3l-2.4,2.2 l-2.3-2.5c-0.3-0.3-0.8-0.3-1.1-0.1c-0.3,0.3-0.3,0.8-0.1,1.1l2.3,2.5l-2.4,2.2l-3.9-4.3c-0.3-0.3-0.8-0.3-1.1-0.1 c-0.3,0.3-0.3,0.8-0.1,1.1l3.9,4.3l-2.3,2l-2.3-2.5c-0.3-0.3-0.8-0.3-1.1-0.1c-0.3,0.3-0.3,0.8-0.1,1.1l2.4,2.7c0,0-1.5,1.4-2,1.9 l-3.9-4.3c-0.3-0.3-0.8-0.3-1.1-0.1c-0.3,0.3-0.3,0.8-0.1,1.1l3.8,4.3c-0.8,0.6-1.7,1.2-2.6,1.6l-2.5-2.7c-0.3-0.3-0.8-0.3-1.1-0.1 s-0.3,0.8-0.1,1.1l2.1,2.3c-0.4,0.1-0.9,0.3-1.4,0.4c-0.7,0.2-1.3,0.3-1.9,0.4l-4.2-4.9c-0.3-0.3-0.8-0.3-1.1-0.1 c-0.3,0.3-0.3,0.8-0.1,1.1l3.6,4c-1.6-0.1-2.5-0.7-3.3-1.4l-5.5-6.3c0.7,0.1,1.4,0.2,2.1,0.2c0.6,0,1.2,0,1.8-0.1 c3.2-0.5,6.5-2.1,9.4-4.7c0,0,0,0,0.1-0.1l10-9l18.3-16.5l6.9,7.6L70.01,46.82z"></path> <path fill="#FFFFFF" d="M81.21,67.62l-12.7-14.1c-0.2-0.3-0.7-0.3-1,0c-0.3,0.3-0.3,0.8-0.1,1.1l7.3,8.2l-5.6,5l-7.3-8.2 c-0.3-0.3-0.8-0.3-1.1-0.1c-0.3,0.3-0.3,0.8-0.1,1.1l12.7,14.1c0.9,1,2.2,1.7,3.6,1.7c0.1,0,0.2,0,0.3,0c1.3,0,2.6-0.5,3.5-1.4 c1-0.9,1.7-2.2,1.7-3.6C82.61,70.02,82.11,68.72,81.21,67.62z M70.21,68.82l5.6-5l1.6,1.8l-5.6,5L70.21,68.82z M79.81,74.02 c-0.7,0.7-1.7,1-2.7,1s-1.9-0.5-2.6-1.2l-1.7-1.9l5.6-5l1.7,1.9C81.51,70.22,81.41,72.62,79.81,74.02z"></path> <path fill="#FFFFFF" d="M39.61,37.42l8.3,9.2c0.1,0.2,0.4,0.2,0.6,0.2c0.2,0,0.4-0.1,0.5-0.2c0.3-0.3,0.3-0.8,0.1-1.1l-7.8-8.7 l5.6-5l7.8,8.7c0.3,0.3,0.8,0.3,1.1,0.1c0.3-0.3,0.3-0.8,0.1-1.1l-8.4-9.1l-5.3-3.3l-5.8-3.6c-0.6-0.4-1.4-0.3-1.9,0.2l-0.1,0.1 c-0.5,0.4-0.6,1.2-0.3,1.8C34.11,25.62,39.51,37.32,39.61,37.42z M45.61,30.92l-5.2,4.7l-1.9-4l3.3-3L45.61,30.92z M35.41,24.72 l5.1,3.2l-2.7,2.3l-2.6-5.3L35.41,24.72z"></path> </g> </svg> 