<?xml version="1.0" encoding="UTF-8"?> <!-- Generator: Adobe Illustrator 25.0.0, SVG Export Plug-In . SVG Version: 6.00 Build 0) --> <svg xmlns="http://www.w3.org/2000/svg" xmlns:xlink="http://www.w3.org/1999/xlink" version="1.1" id="Ebene_1" x="0px" y="0px" viewBox="0 0 100 100" xml:space="preserve"> <g> <path fill="#FFFFFF" d="M67.31,63.24V26.55c0-1.58-1.29-2.87-2.87-2.87h-5.39V22.7c0.01-0.47-0.16-0.91-0.49-1.25 s-0.76-0.53-1.19-0.54c-0.02,0-0.06,0-0.07,0h-5.99c-0.36-2.01-2.12-3.54-4.23-3.54c-2.11,0-3.87,1.53-4.22,3.54h-6.19 c-0.96,0-1.75,0.79-1.75,1.75v1.02h-5.04c-1.57,0.01-2.85,1.29-2.86,2.86V71.6c0.01,1.57,1.29,2.85,2.86,2.86H52.7 c0.96,4.66,5.09,8.17,10.03,8.17c5.65,0,10.24-4.59,10.24-10.24C72.97,68.39,70.66,64.93,67.31,63.24z M64.44,25.18 c0.75,0,1.37,0.61,1.37,1.37v36.07c-0.65-0.21-1.33-0.35-2.03-0.42V30.01c0.01-1.38-1.11-2.52-2.5-2.52h-2.26 c0.01-0.09,0.03-0.17,0.03-0.26v-2.05H64.44z M53.02,69.16H33.04c-0.56-0.01-1-0.47-0.99-1.04v-38.1c0-0.27,0.1-0.53,0.28-0.72 c0.19-0.19,0.44-0.3,0.7-0.31h4.72c0.02,0,0.03-0.01,0.05-0.01h18.43c0.02,0,0.03,0.01,0.05,0.01h5c0.56,0,1.01,0.46,1,1.04v32.14 C57.96,62.36,54.33,65.23,53.02,69.16z M36.43,22.66c0-0.14,0.11-0.25,0.25-0.25h6.87c0.41,0,0.75-0.34,0.75-0.75 c0-1.54,1.25-2.79,2.79-2.79c1.54,0,2.79,1.25,2.79,2.79c0,0.41,0.34,0.75,0.75,0.75h6.67v-0.75l0.01,0.75 c0.09,0,0.15,0.05,0.17,0.08c0.03,0.03,0.07,0.09,0.07,0.19v4.55c0,0.14-0.11,0.25-0.25,0.25H36.68c-0.14,0-0.25-0.11-0.25-0.25 V22.66z M29.89,72.96c-0.75,0-1.36-0.62-1.36-1.36V26.54c0-0.75,0.62-1.36,1.36-1.36h5.04v2.05c0,0.09,0.01,0.17,0.03,0.26h-1.94 c-0.67,0.01-1.3,0.28-1.76,0.77c-0.47,0.48-0.72,1.12-0.7,1.77v38.08c-0.02,1.38,1.08,2.53,2.48,2.55h19.62 c-0.1,0.56-0.16,1.14-0.16,1.73c0,0.19,0.02,0.38,0.03,0.57H29.89z M62.73,81.13c-4.82,0-8.74-3.92-8.74-8.74s3.92-8.74,8.74-8.74 c4.82,0,8.74,3.92,8.74,8.74S67.55,81.13,62.73,81.13z"></path> <path fill="#FFFFFF" d="M66.52,68.56l-5.01,6.04l-2.62-2.72c-0.29-0.3-0.76-0.31-1.06-0.02c-0.3,0.29-0.31,0.76-0.02,1.06l3.2,3.32 c0.14,0.15,0.34,0.23,0.54,0.23c0.01,0,0.02,0,0.03,0c0.21-0.01,0.41-0.11,0.55-0.27l5.55-6.69c0.26-0.32,0.22-0.79-0.1-1.06 C67.26,68.2,66.79,68.24,66.52,68.56z"></path> <path fill="#FFFFFF" d="M38.14,40.98c0.14,0.15,0.34,0.23,0.54,0.23c0.01,0,0.02,0,0.03,0c0.21-0.01,0.41-0.11,0.55-0.27l3.4-4.1 c0.26-0.32,0.22-0.79-0.1-1.06c-0.32-0.27-0.79-0.22-1.06,0.1l-2.86,3.45l-1.38-1.43c-0.29-0.3-0.76-0.31-1.06-0.02 c-0.3,0.29-0.31,0.76-0.02,1.06L38.14,40.98z"></path> <path fill="#FFFFFF" d="M41.59,45.49l-2.86,3.45l-1.38-1.43c-0.29-0.3-0.76-0.31-1.06-0.02c-0.3,0.29-0.31,0.76-0.02,1.06 l1.96,2.04c0.14,0.15,0.34,0.23,0.54,0.23c0.01,0,0.02,0,0.03,0c0.21-0.01,0.41-0.11,0.55-0.27l3.4-4.1 c0.26-0.32,0.22-0.79-0.1-1.06C42.33,45.13,41.86,45.17,41.59,45.49z"></path> <path fill="#FFFFFF" d="M41.59,54.99l-2.86,3.45l-1.38-1.43c-0.29-0.3-0.76-0.31-1.06-0.02c-0.3,0.29-0.31,0.76-0.02,1.06 l1.96,2.04c0.14,0.15,0.34,0.23,0.54,0.23c0.01,0,0.02,0,0.03,0c0.21-0.01,0.41-0.11,0.55-0.27l3.4-4.1 c0.26-0.32,0.22-0.79-0.1-1.06C42.33,54.63,41.86,54.67,41.59,54.99z"></path> <path fill="#FFFFFF" d="M46.52,39.34h11.24c0.41,0,0.75-0.34,0.75-0.75s-0.34-0.75-0.75-0.75H46.52c-0.41,0-0.75,0.34-0.75,0.75 S46.11,39.34,46.52,39.34z"></path> <path fill="#FFFFFF" d="M46.52,48.7h11.24c0.41,0,0.75-0.34,0.75-0.75s-0.34-0.75-0.75-0.75H46.52c-0.41,0-0.75,0.34-0.75,0.75 S46.11,48.7,46.52,48.7z"></path> <path fill="#FFFFFF" d="M58.51,57.58c0-0.41-0.34-0.75-0.75-0.75H46.52c-0.41,0-0.75,0.34-0.75,0.75s0.34,0.75,0.75,0.75h11.24 C58.17,58.33,58.51,57.99,58.51,57.58z"></path> </g> </svg> 