<?xml version="1.0" encoding="utf-8"?>
<!-- Generator: Adobe Illustrator 25.3.1, SVG Export Plug-In . SVG Version: 6.00 Build 0)  -->
<svg version="1.1" id="Ebene_1" xmlns="http://www.w3.org/2000/svg" xmlns:xlink="http://www.w3.org/1999/xlink" x="0px" y="0px"
	 viewBox="0 0 162 162" style="enable-background:new 0 0 162 162;" xml:space="preserve">
<path d="M80.7,120.4c-21.8,0-39.5-17.7-39.5-39.5c0-21.8,17.7-39.5,39.5-39.5c21.8,0,39.5,17.7,39.5,39.5
	C120.2,102.7,102.5,120.4,80.7,120.4z M80.7,43.7c-20.5,0-37.2,16.7-37.2,37.2c0,20.5,16.7,37.2,37.2,37.2
	c20.5,0,37.2-16.7,37.2-37.2C117.9,60.4,101.2,43.7,80.7,43.7L80.7,43.7z"/>
<path d="M80.7,125.4c-24.6,0-44.7-20.1-44.7-44.7C36,56.1,56.1,36,80.7,36c24.6,0,44.7,20.1,44.7,44.7
	C125.4,105.4,105.4,125.4,80.7,125.4L80.7,125.4z M80.7,38.4c-23.3,0-42.3,19-42.3,42.3c0,23.3,19,42.3,42.3,42.3
	c23.3,0,42.3-19,42.3-42.3C123.1,57.4,104.1,38.4,80.7,38.4L80.7,38.4z"/>
<path d="M80.6,130.7c-27.5,0-49.9-22.4-49.9-49.9C30.7,53.3,53.1,31,80.6,31c27.5,0,49.9,22.4,49.9,49.9
	C130.5,108.3,108.1,130.7,80.6,130.7z M80.6,33.3c-26.2,0-47.5,21.3-47.5,47.5c0,26.2,21.3,47.5,47.5,47.5
	c26.2,0,47.5-21.3,47.5-47.5C128.1,54.6,106.8,33.3,80.6,33.3L80.6,33.3z"/>
<path d="M80.7,135.9c-30.3,0-55-24.7-55-55c0-30.3,24.7-55,55-55c30.3,0,55,24.7,55,55C135.7,111.2,111,135.9,80.7,135.9L80.7,135.9
	z M80.7,28.2c-29,0-52.6,23.6-52.6,52.6c0,29,23.6,52.6,52.6,52.6c29,0,52.6-23.6,52.6-52.6C133.3,51.9,109.7,28.2,80.7,28.2
	L80.7,28.2z"/>
<path d="M80.7,140.9c-33.2,0-60.2-27-60.2-60.2c0-33.2,27-60.2,60.2-60.2s60.2,27,60.2,60.2C140.9,113.9,113.9,140.9,80.7,140.9z
	 M80.7,22.9c-31.9,0-57.8,25.9-57.8,57.8c0,31.9,25.9,57.8,57.8,57.8s57.8-25.9,57.8-57.8C138.5,48.9,112.6,22.9,80.7,22.9
	L80.7,22.9z"/>
<path d="M80.8,146.1c-36,0-65.3-29.3-65.3-65.3s29.3-65.3,65.3-65.3c36,0,65.3,29.3,65.3,65.3S116.8,146.1,80.8,146.1L80.8,146.1z
	 M80.8,17.9c-34.7,0-62.9,28.2-62.9,62.9c0,34.7,28.2,62.9,62.9,62.9c34.7,0,62.9-28.2,62.9-62.9C143.7,46.1,115.5,17.9,80.8,17.9
	L80.8,17.9z"/>
<path d="M80.7,151.4c-38.9,0-70.5-31.6-70.5-70.5c0-38.9,31.6-70.5,70.5-70.5c38.9,0,70.5,31.6,70.5,70.5
	C151.1,119.7,119.5,151.4,80.7,151.4z M80.7,12.8c-37.5,0-68.1,30.5-68.1,68.1c0,37.6,30.5,68.1,68.1,68.1
	c37.5,0,68.1-30.5,68.1-68.1C148.8,43.3,118.2,12.8,80.7,12.8L80.7,12.8z"/>
<path d="M80.7,156.4c-41.7,0-75.6-33.9-75.6-75.6C5.1,39,39,5.1,80.7,5.1c41.7,0,75.6,33.9,75.6,75.6
	C156.4,122.4,122.4,156.4,80.7,156.4z M80.7,7.5C40.3,7.5,7.5,40.3,7.5,80.7c0,40.4,32.9,73.3,73.3,73.3c40.4,0,73.3-32.9,73.3-73.3
	C154,40.3,121.1,7.5,80.7,7.5L80.7,7.5z"/>
<path d="M80.8,161.6C36.2,161.6,0,125.3,0,80.8C0,36.2,36.2,0,80.8,0c44.5,0,80.8,36.2,80.8,80.8
	C161.6,125.3,125.3,161.6,80.8,161.6z M80.8,2.5C37.7,2.5,2.5,37.7,2.5,80.8c0,43.1,35.1,78.2,78.2,78.2c43.1,0,78.2-35.1,78.2-78.2
	C159,37.7,123.9,2.5,80.8,2.5L80.8,2.5z"/>
<path d="M80.6,115.2c-19,0-34.4-15.4-34.4-34.4c0-19,15.4-34.4,34.4-34.4c19,0,34.4,15.4,34.4,34.4C115,99.8,99.6,115.2,80.6,115.2z
	 M80.6,48.8c-17.7,0-32,14.4-32,32c0,17.7,14.4,32,32,32c17.7,0,32-14.4,32-32C112.6,63.1,98.3,48.8,80.6,48.8L80.6,48.8z"/>
<path d="M80.8,87.5c3.7,0,6.8-3,6.8-6.8s-3-6.8-6.8-6.8S74,77,74,80.8S77,87.5,80.8,87.5z"/>
</svg>
