<svg width="162" height="162" viewBox="0 0 162 162" fill="none" xmlns="http://www.w3.org/2000/svg">
<path d="M80.6737 120.426C58.8715 120.426 41.1338 102.687 41.1338 80.8873C41.1338 59.0851 58.8715 41.3462 80.6737 41.3462C102.477 41.3462 120.214 59.0851 120.214 80.8873C120.214 102.687 102.477 120.426 80.6737 120.426ZM80.6737 43.7017C60.1705 43.7017 43.4881 60.3817 43.4881 80.8873C43.4881 101.391 60.1705 118.071 80.6737 118.071C101.178 118.071 117.858 101.391 117.858 80.8873C117.859 60.3817 101.179 43.7017 80.6737 43.7017V43.7017Z" fill="#6A1580"/>
<path d="M80.742 125.439C56.0979 125.439 36.0459 105.386 36.0459 80.741C36.0459 56.0945 56.0967 36.0425 80.742 36.0425C105.387 36.0425 125.439 56.0932 125.439 80.741C125.439 105.385 105.388 125.439 80.742 125.439V125.439ZM80.742 38.4052C57.3993 38.4052 38.4087 57.3971 38.4087 80.741C38.4087 104.085 57.3993 123.077 80.742 123.077C104.085 123.077 123.079 104.085 123.079 80.741C123.079 57.3971 104.085 38.4052 80.742 38.4052V38.4052Z" fill="#6A1580"/>
<path d="M80.5985 130.667C53.1089 130.667 30.7451 108.302 30.7451 80.8116C30.7451 53.3208 53.1089 30.9558 80.5985 30.9558C108.089 30.9558 130.453 53.3208 130.453 80.8116C130.453 108.302 108.089 130.667 80.5985 130.667ZM80.5985 33.3259C54.4152 33.3259 33.114 54.6271 33.114 80.8116C33.114 106.996 54.4152 128.297 80.5985 128.297C106.784 128.297 128.085 106.996 128.085 80.8116C128.085 54.6271 106.784 33.3259 80.5985 33.3259V33.3259Z" fill="#6A1580"/>
<path d="M80.6689 135.887C50.335 135.887 25.6582 111.209 25.6582 80.8764C25.6582 50.5413 50.335 25.8645 80.6689 25.8645C111.003 25.8645 135.68 50.5425 135.68 80.8764C135.681 111.209 111.003 135.887 80.6689 135.887V135.887ZM80.6689 28.2382C51.645 28.2382 28.0331 51.8525 28.0331 80.8764C28.0331 109.899 51.6462 133.512 80.6689 133.512C109.695 133.512 133.306 109.898 133.306 80.8764C133.307 51.8513 109.695 28.2382 80.6689 28.2382V28.2382Z" fill="#6A1580"/>
<path d="M80.7362 140.901C47.5592 140.901 20.5693 113.909 20.5693 80.7344C20.5693 47.5563 47.5604 20.5652 80.7362 20.5652C113.912 20.5652 140.904 47.5575 140.904 80.7344C140.905 113.909 113.913 140.901 80.7362 140.901ZM80.7362 22.9425C48.8716 22.9425 22.9454 48.8662 22.9454 80.7332C22.9454 112.598 48.8704 138.523 80.7362 138.523C112.602 138.523 138.527 112.599 138.527 80.7332C138.527 48.8662 112.603 22.9425 80.7362 22.9425V22.9425Z" fill="#6A1580"/>
<path d="M80.8007 146.13C44.7807 146.13 15.4766 116.824 15.4766 80.8039C15.4766 44.7838 44.7807 15.4773 80.8007 15.4773C116.822 15.4773 146.126 44.7838 146.126 80.8039C146.126 116.824 116.823 146.13 80.8007 146.13V146.13ZM80.8007 17.8607C46.0931 17.8607 17.8575 46.0962 17.8575 80.8051C17.8575 115.515 46.0919 143.751 80.8007 143.751C115.507 143.751 143.746 115.515 143.746 80.8051C143.746 46.0962 115.508 17.8607 80.8007 17.8607V17.8607Z" fill="#6A1580"/>
<path d="M80.6571 151.35C41.7927 151.35 10.1768 119.733 10.1768 80.8677C10.1768 42.0046 41.7927 10.3862 80.6571 10.3862C119.521 10.3862 151.142 42.0046 151.142 80.8677C151.143 119.733 119.521 151.35 80.6571 151.35ZM80.6571 12.7696C43.1087 12.7696 12.5601 43.3182 12.5601 80.8689C12.5601 118.42 43.1087 148.967 80.6571 148.967C118.207 148.967 148.758 118.42 148.758 80.8689C148.758 43.3182 118.207 12.7696 80.6571 12.7696V12.7696Z" fill="#6A1580"/>
<path d="M80.7267 156.363C39.0193 156.363 5.08789 122.433 5.08789 80.7257C5.08789 39.0183 39.0205 5.08691 80.7267 5.08691C122.433 5.08691 156.367 39.0183 156.367 80.7257C156.367 122.433 122.434 156.363 80.7267 156.363ZM80.7267 7.47515C40.3353 7.47515 7.47491 40.3355 7.47491 80.727C7.47491 121.121 40.3353 153.978 80.7267 153.978C121.119 153.978 153.98 121.121 153.98 80.727C153.98 40.3343 121.119 7.47515 80.7267 7.47515V7.47515Z" fill="#6A1580"/>
<path d="M80.7962 161.591C36.2457 161.591 0 125.349 0 80.7962C0 36.2457 36.2457 0 80.7962 0C125.345 0 161.594 36.2457 161.594 80.7962C161.595 125.35 125.347 161.591 80.7962 161.591ZM80.7962 2.54834C37.6514 2.54834 2.54955 37.6514 2.54955 80.7962C2.54955 123.942 37.6502 159.04 80.7962 159.04C123.942 159.04 159.043 123.942 159.043 80.7962C159.043 37.6526 123.942 2.54834 80.7962 2.54834V2.54834Z" fill="#6A1580"/>
<path d="M80.6053 115.193C61.6473 115.193 46.2227 99.771 46.2227 80.8143C46.2227 61.8551 61.6473 46.4329 80.6053 46.4329C99.562 46.4329 114.987 61.8551 114.987 80.8143C114.987 99.771 99.562 115.193 80.6053 115.193ZM80.6053 48.7762C62.9391 48.7762 48.566 63.1493 48.566 80.8143C48.566 98.4792 62.9391 112.85 80.6053 112.85C98.2702 112.85 112.643 98.4792 112.643 80.8143C112.643 63.1493 98.2714 48.7762 80.6053 48.7762V48.7762Z" fill="#6A1580"/>
<path d="M80.7661 87.5313C84.504 87.5313 87.5342 84.5011 87.5342 80.7632C87.5342 77.0253 84.504 73.9951 80.7661 73.9951C77.0282 73.9951 73.998 77.0253 73.998 80.7632C73.998 84.5011 77.0282 87.5313 80.7661 87.5313Z" fill="#6A1580"/>
</svg>
