<svg width="634" height="162" viewBox="0 0 634 162" fill="none" xmlns="http://www.w3.org/2000/svg">
<path d="M80.6737 120.426C58.8715 120.426 41.1338 102.687 41.1338 80.8873C41.1338 59.0851 58.8715 41.3462 80.6737 41.3462C102.477 41.3462 120.214 59.0851 120.214 80.8873C120.214 102.687 102.477 120.426 80.6737 120.426ZM80.6737 43.7017C60.1705 43.7017 43.4881 60.3817 43.4881 80.8873C43.4881 101.391 60.1705 118.071 80.6737 118.071C101.178 118.071 117.858 101.391 117.858 80.8873C117.859 60.3817 101.179 43.7017 80.6737 43.7017V43.7017Z" fill="#6A1580"/>
<path d="M80.742 125.439C56.0979 125.439 36.0459 105.386 36.0459 80.741C36.0459 56.0945 56.0967 36.0425 80.742 36.0425C105.387 36.0425 125.439 56.0932 125.439 80.741C125.439 105.385 105.388 125.439 80.742 125.439V125.439ZM80.742 38.4052C57.3993 38.4052 38.4087 57.3971 38.4087 80.741C38.4087 104.085 57.3993 123.077 80.742 123.077C104.085 123.077 123.079 104.085 123.079 80.741C123.079 57.3971 104.085 38.4052 80.742 38.4052V38.4052Z" fill="#6A1580"/>
<path d="M80.5985 130.667C53.1089 130.667 30.7451 108.302 30.7451 80.8116C30.7451 53.3208 53.1089 30.9558 80.5985 30.9558C108.089 30.9558 130.453 53.3208 130.453 80.8116C130.453 108.302 108.089 130.667 80.5985 130.667ZM80.5985 33.3259C54.4152 33.3259 33.114 54.6271 33.114 80.8116C33.114 106.996 54.4152 128.297 80.5985 128.297C106.784 128.297 128.085 106.996 128.085 80.8116C128.085 54.6271 106.784 33.3259 80.5985 33.3259V33.3259Z" fill="#6A1580"/>
<path d="M80.6689 135.887C50.335 135.887 25.6582 111.209 25.6582 80.8764C25.6582 50.5413 50.335 25.8645 80.6689 25.8645C111.003 25.8645 135.68 50.5425 135.68 80.8764C135.681 111.209 111.003 135.887 80.6689 135.887V135.887ZM80.6689 28.2382C51.645 28.2382 28.0331 51.8525 28.0331 80.8764C28.0331 109.899 51.6462 133.512 80.6689 133.512C109.695 133.512 133.306 109.898 133.306 80.8764C133.307 51.8513 109.695 28.2382 80.6689 28.2382V28.2382Z" fill="#6A1580"/>
<path d="M80.7362 140.901C47.5592 140.901 20.5693 113.909 20.5693 80.7344C20.5693 47.5563 47.5604 20.5652 80.7362 20.5652C113.912 20.5652 140.904 47.5575 140.904 80.7344C140.905 113.909 113.913 140.901 80.7362 140.901ZM80.7362 22.9425C48.8716 22.9425 22.9454 48.8662 22.9454 80.7332C22.9454 112.598 48.8704 138.523 80.7362 138.523C112.602 138.523 138.527 112.599 138.527 80.7332C138.527 48.8662 112.603 22.9425 80.7362 22.9425V22.9425Z" fill="#6A1580"/>
<path d="M80.8007 146.13C44.7807 146.13 15.4766 116.824 15.4766 80.8039C15.4766 44.7838 44.7807 15.4773 80.8007 15.4773C116.822 15.4773 146.126 44.7838 146.126 80.8039C146.126 116.824 116.823 146.13 80.8007 146.13V146.13ZM80.8007 17.8607C46.0931 17.8607 17.8575 46.0962 17.8575 80.8051C17.8575 115.515 46.0919 143.751 80.8007 143.751C115.507 143.751 143.746 115.515 143.746 80.8051C143.746 46.0962 115.508 17.8607 80.8007 17.8607V17.8607Z" fill="#6A1580"/>
<path d="M80.6571 151.35C41.7927 151.35 10.1768 119.733 10.1768 80.8677C10.1768 42.0046 41.7927 10.3862 80.6571 10.3862C119.521 10.3862 151.142 42.0046 151.142 80.8677C151.143 119.733 119.521 151.35 80.6571 151.35ZM80.6571 12.7696C43.1087 12.7696 12.5601 43.3182 12.5601 80.8689C12.5601 118.42 43.1087 148.967 80.6571 148.967C118.207 148.967 148.758 118.42 148.758 80.8689C148.758 43.3182 118.207 12.7696 80.6571 12.7696V12.7696Z" fill="#6A1580"/>
<path d="M80.7267 156.363C39.0193 156.363 5.08789 122.433 5.08789 80.7257C5.08789 39.0183 39.0205 5.08691 80.7267 5.08691C122.433 5.08691 156.367 39.0183 156.367 80.7257C156.367 122.433 122.434 156.363 80.7267 156.363ZM80.7267 7.47515C40.3353 7.47515 7.47491 40.3355 7.47491 80.727C7.47491 121.121 40.3353 153.978 80.7267 153.978C121.119 153.978 153.98 121.121 153.98 80.727C153.98 40.3343 121.119 7.47515 80.7267 7.47515V7.47515Z" fill="#6A1580"/>
<path d="M80.7962 161.591C36.2457 161.591 0 125.349 0 80.7962C0 36.2457 36.2457 0 80.7962 0C125.345 0 161.594 36.2457 161.594 80.7962C161.595 125.35 125.347 161.591 80.7962 161.591ZM80.7962 2.54834C37.6514 2.54834 2.54955 37.6514 2.54955 80.7962C2.54955 123.942 37.6502 159.04 80.7962 159.04C123.942 159.04 159.043 123.942 159.043 80.7962C159.043 37.6526 123.942 2.54834 80.7962 2.54834V2.54834Z" fill="#6A1580"/>
<path d="M80.6053 115.193C61.6473 115.193 46.2227 99.771 46.2227 80.8143C46.2227 61.8551 61.6473 46.4329 80.6053 46.4329C99.562 46.4329 114.987 61.8551 114.987 80.8143C114.987 99.771 99.562 115.193 80.6053 115.193ZM80.6053 48.7762C62.9391 48.7762 48.566 63.1493 48.566 80.8143C48.566 98.4792 62.9391 112.85 80.6053 112.85C98.2702 112.85 112.643 98.4792 112.643 80.8143C112.643 63.1493 98.2714 48.7762 80.6053 48.7762V48.7762Z" fill="#6A1580"/>
<path d="M80.7661 87.5313C84.504 87.5313 87.5342 84.5011 87.5342 80.7632C87.5342 77.0253 84.504 73.9951 80.7661 73.9951C77.0282 73.9951 73.998 77.0253 73.998 80.7632C73.998 84.5011 77.0282 87.5313 80.7661 87.5313Z" fill="#6A1580"/>
<path d="M229.821 61.656C229.821 73.3376 222.78 80.9511 212.14 80.9511C202.23 80.9511 193 73.5462 193 61.0277C193 48.5128 201.866 41 212.14 41C218.555 41 223.458 43.2961 226.848 47.5194L222.832 51.4857C220.431 48.4085 216.782 46.634 212.347 46.634C205.098 46.634 199.048 52.0072 199.048 61.0277C199.048 69.9475 204.941 75.3195 212.139 75.3195C218.919 75.3195 222.935 71.4079 223.613 64.7841H211.201V59.5152H229.716C229.768 60.2975 229.821 61.0277 229.821 61.656V61.656Z" fill="#333333"/>
<path d="M265.165 71.4636H250.509L246.963 80.381H240.704L257.498 41.2146H258.437L275.179 80.381H268.764L265.165 71.4636ZM257.81 52.4256L252.229 66.4542H263.443L257.81 52.4256Z" fill="#333333"/>
<path d="M310.344 80.3928L296.159 61.618V80.3928H290.317V41.8523H302.677C311.388 41.8523 316.707 45.764 316.707 53.1688C316.707 59.7926 312.482 63.4956 304.815 64.1724L317.592 80.3928H310.344V80.3928ZM300.904 59.7404C307.58 59.7404 310.605 57.7051 310.605 53.3774C310.605 49.2584 307.894 47.1188 302.26 47.1188H296.159V59.7404H300.904V59.7404Z" fill="#333333"/>
<path d="M355.911 71.4633H341.255L337.709 80.3807H331.45L348.244 41.2144H349.183L365.925 80.3807H359.51L355.911 71.4633ZM348.557 52.4254L342.977 66.454H354.19L348.557 52.4254Z" fill="#333333"/>
<path d="M415.668 80.3824L411.6 56.756L401.065 80.4855H400.127L389.54 56.8081L385.421 80.3824H379.579L386.726 41.2161H387.82L400.598 69.847L413.375 41.2161H414.522L421.511 80.3824H415.668V80.3824Z" fill="#333333"/>
<path d="M459.804 71.4636H445.148L441.601 80.381H435.343L452.137 41.2146H453.076L469.818 80.381H463.402L459.804 71.4636ZM452.45 52.4256L446.869 66.4542H458.083L452.45 52.4256Z" fill="#333333"/>
<path d="M515.096 41.8405V80.9547H514.002L490.585 54.6186V80.381H484.743V41.2146H485.838L509.204 67.655V41.8405H515.096Z" fill="#333333"/>
<path d="M542.964 47.17H531.177V41.8513H560.592V47.17H548.805V80.393H542.964V47.17Z" fill="#333333"/>
<path d="M582.389 41.8506H576.548V80.3911H582.389V41.8506Z" fill="#333333"/>
<path d="M598.598 75.108L602.144 70.7257C605.378 73.855 608.977 75.4209 612.888 75.4209C617.739 75.4209 620.554 73.1249 620.554 69.5795C620.554 60.6088 599.954 66.8674 599.954 52.3694C599.954 45.7457 605.482 41.0007 613.723 41.0007C619.251 41.0007 623.372 43.1379 626.136 45.85L622.798 50.1255C620.45 47.8319 617.581 46.4225 613.723 46.4225C608.82 46.4225 605.899 48.7707 605.899 52.2117C605.899 60.8683 626.553 55.0281 626.553 69.1101C626.553 76.3076 621.023 80.8961 612.784 80.8961C606.161 80.8961 601.727 78.133 598.598 75.108V75.108Z" fill="#333333"/>
<path d="M200.827 116.215H200V133.199H200.827V116.215Z" fill="#333333"/>
<path d="M223.657 116.139V133.259H223.335L211.432 117.956V133.122H210.604V116.002H210.926L222.83 131.285V116.14H223.657V116.139Z" fill="#333333"/>
<path d="M237.567 116.998H231.592V116.216H244.347V116.998H238.372V133.199H237.567V116.998V116.998Z" fill="#333333"/>
<path d="M262.138 132.417V133.196H252.372V116.213H261.886V116.995H253.199V124.143H261.541V124.926H253.199V132.419H262.138V132.417Z" fill="#333333"/>
<path d="M274.477 125.222H271.857V133.196H271.03V116.213H275.511C276.675 116.213 277.671 116.392 278.498 116.755C279.327 117.115 279.962 117.629 280.406 118.306C280.85 118.979 281.072 119.782 281.072 120.717C281.072 122.141 280.59 123.243 279.625 124.015C278.661 124.788 277.296 125.191 275.534 125.221L281.418 133.195H280.291L274.477 125.222ZM275.329 124.44C276.921 124.44 278.136 124.122 278.971 123.485C279.806 122.853 280.224 121.929 280.224 120.719C280.224 119.523 279.814 118.603 278.994 117.962C278.174 117.318 277.014 116.995 275.512 116.995H271.859V124.441H275.329V124.44V124.44Z" fill="#333333"/>
<path d="M298.132 127.653H290.365L288.251 133.144H287.354L294.134 116.002H294.386L301.165 133.144H300.268L298.132 127.653ZM294.249 117.703L290.663 126.848H297.811L294.249 117.703Z" fill="#333333"/>
<path d="M310.961 132.146C309.751 131.388 308.801 130.351 308.111 129.031C307.422 127.716 307.076 126.252 307.076 124.644C307.076 123.019 307.424 121.55 308.122 120.23C308.819 118.913 309.781 117.88 311.006 117.129C312.231 116.378 313.619 116.001 315.165 116.001C316.514 116.001 317.723 116.266 318.797 116.794C319.869 117.323 320.749 118.069 321.44 119.035L320.795 119.564C320.198 118.676 319.413 117.991 318.441 117.508C317.468 117.026 316.377 116.783 315.166 116.783C313.757 116.783 312.504 117.129 311.409 117.816C310.313 118.508 309.46 119.449 308.847 120.645C308.235 121.839 307.928 123.173 307.928 124.644C307.928 126.098 308.233 127.425 308.847 128.619C309.46 129.815 310.31 130.756 311.398 131.445C312.485 132.134 313.696 132.481 315.029 132.481C316.331 132.481 317.481 132.203 318.476 131.653C319.472 131.102 320.276 130.327 320.889 129.332L321.533 129.836C320.859 130.923 319.962 131.772 318.844 132.376C317.726 132.983 316.439 133.284 314.983 133.284C313.512 133.284 312.17 132.904 310.961 132.146V132.146Z" fill="#333333"/>
<path d="M334.038 116.996H328.063V116.214H340.817V116.996H334.842V133.197H334.038V116.996Z" fill="#333333"/>
<path d="M349.671 116.216H348.843V133.2H349.671V116.216Z" fill="#333333"/>
<path d="M371.197 116.212L364.302 133.332H363.981L357.109 116.212H358.004L364.164 131.793L370.3 116.212H371.197V116.212Z" fill="#333333"/>
<path d="M388.293 132.417V133.197H378.526V116.214H388.041V116.996H379.354V124.144H387.696V124.926H379.354V132.42H388.293V132.417Z" fill="#333333"/>
<path d="M411.005 116.997H405.03V116.215H417.785V116.997H411.81V133.198H411.005V116.997V116.997Z" fill="#333333"/>
<path d="M435.57 132.419V133.199H425.805V116.216H435.319V116.998H426.632V124.146H434.973V124.928H426.632V132.422H435.57V132.419Z" fill="#333333"/>
<path d="M446.655 132.145C445.444 131.387 444.495 130.35 443.804 129.03C443.115 127.716 442.769 126.252 442.769 124.643C442.769 123.018 443.117 121.549 443.815 120.229C444.512 118.912 445.473 117.879 446.698 117.128C447.926 116.377 449.311 116 450.859 116C452.206 116 453.417 116.266 454.49 116.793C455.561 117.322 456.442 118.068 457.132 119.035L456.49 119.564C455.894 118.676 455.106 117.99 454.134 117.508C453.162 117.025 452.07 116.782 450.86 116.782C449.451 116.782 448.198 117.128 447.102 117.816C446.006 118.507 445.153 119.448 444.539 120.644C443.928 121.838 443.62 123.172 443.62 124.643C443.62 126.098 443.928 127.424 444.539 128.618C445.153 129.814 446.003 130.755 447.091 131.444C448.179 132.133 449.39 132.48 450.723 132.48C452.023 132.48 453.174 132.202 454.17 131.653C455.165 131.101 455.97 130.326 456.584 129.331L457.225 129.836C456.55 130.923 455.655 131.772 454.536 132.376C453.418 132.982 452.132 133.283 450.674 133.283C449.206 133.283 447.863 132.903 446.655 132.145V132.145Z" fill="#333333"/>
<path d="M477.176 116.213V133.196H476.349V124.924H466.283V133.196H465.456V116.213H466.283V124.141H476.349V116.213H477.176Z" fill="#333333"/>
<path d="M499.922 116.138V133.258H499.599L487.695 117.955V133.121H486.868V116.001H487.191L499.094 131.284V116.139H499.922V116.138Z" fill="#333333"/>
<path d="M512.306 132.216C511.065 131.458 510.084 130.421 509.363 129.101C508.643 127.784 508.285 126.312 508.285 124.69C508.285 123.05 508.641 121.572 509.354 120.255C510.065 118.936 511.046 117.898 512.294 117.14C513.542 116.382 514.94 116.003 516.489 116.003C518.02 116.003 519.408 116.381 520.647 117.14C521.888 117.898 522.869 118.94 523.59 120.267C524.31 121.592 524.67 123.065 524.67 124.69C524.67 126.312 524.315 127.784 523.602 129.101C522.889 130.421 521.909 131.458 520.659 132.216C519.41 132.974 518.013 133.353 516.466 133.353C514.933 133.352 513.548 132.974 512.306 132.216V132.216ZM520.223 131.547C521.348 130.867 522.229 129.925 522.864 128.721C523.501 127.521 523.819 126.174 523.819 124.69C523.819 123.201 523.496 121.854 522.852 120.643C522.211 119.435 521.329 118.488 520.211 117.805C519.092 117.125 517.851 116.784 516.489 116.784C515.108 116.784 513.857 117.125 512.732 117.805C511.604 118.487 510.723 119.43 510.088 120.634C509.453 121.834 509.133 123.187 509.133 124.69C509.133 126.175 509.456 127.521 510.1 128.721C510.744 129.925 511.623 130.868 512.744 131.547C513.86 132.229 515.101 132.571 516.465 132.571C517.844 132.571 519.096 132.23 520.223 131.547V131.547Z" fill="#333333"/>
<path d="M541.69 132.416V133.196H533.302V116.212H534.131V132.416H541.69V132.416Z" fill="#333333"/>
<path d="M551.109 132.213C549.868 131.455 548.887 130.418 548.167 129.098C547.446 127.781 547.086 126.31 547.086 124.687C547.086 123.047 547.444 121.57 548.155 120.252C548.868 118.933 549.848 117.896 551.097 117.138C552.346 116.38 553.744 116 555.29 116C556.823 116 558.208 116.378 559.45 117.138C560.692 117.897 561.672 118.938 562.393 120.265C563.113 121.589 563.474 123.063 563.474 124.687C563.474 126.31 563.116 127.781 562.405 129.098C561.692 130.418 560.712 131.455 559.463 132.213C558.213 132.971 556.816 133.351 555.27 133.351C553.736 133.35 552.35 132.971 551.109 132.213V132.213ZM559.026 131.545C560.151 130.864 561.032 129.922 561.668 128.719C562.304 127.518 562.622 126.172 562.622 124.687C562.622 123.199 562.3 121.851 561.656 120.641C561.014 119.433 560.132 118.485 559.014 117.802C557.895 117.122 556.655 116.781 555.29 116.781C553.911 116.781 552.658 117.122 551.533 117.802C550.407 118.484 549.526 119.428 548.891 120.631C548.254 121.832 547.936 123.184 547.936 124.687C547.936 126.173 548.259 127.518 548.903 128.719C549.545 129.922 550.426 130.866 551.545 131.545C552.663 132.226 553.904 132.568 555.268 132.568C556.645 132.568 557.898 132.228 559.026 131.545V131.545Z" fill="#333333"/>
<path d="M586.714 124.711V125.033C586.714 126.642 586.401 128.075 585.774 129.331C585.143 130.586 584.253 131.57 583.097 132.273C581.939 132.979 580.602 133.33 579.086 133.33C577.57 133.33 576.198 132.951 574.97 132.192C573.745 131.434 572.783 130.397 572.087 129.077C571.391 127.762 571.043 126.298 571.043 124.69C571.043 123.082 571.386 121.613 572.076 120.288C572.767 118.964 573.732 117.917 574.972 117.152C576.212 116.386 577.623 116.003 579.2 116.003C580.595 116.003 581.851 116.276 582.968 116.818C584.087 117.363 584.992 118.133 585.68 119.128L585.104 119.701C584.508 118.782 583.695 118.066 582.669 117.554C581.643 117.04 580.494 116.784 579.222 116.784C577.781 116.784 576.507 117.132 575.396 117.829C574.285 118.525 573.423 119.477 572.811 120.679C572.198 121.882 571.89 123.219 571.89 124.69C571.89 126.144 572.198 127.474 572.811 128.677C573.423 129.88 574.273 130.825 575.361 131.515C576.449 132.205 577.69 132.551 579.085 132.551C580.432 132.551 581.612 132.255 582.624 131.666C583.633 131.076 584.421 130.244 584.99 129.171C585.557 128.1 585.855 126.872 585.885 125.494H578.67V124.712H586.714V124.711V124.711Z" fill="#333333"/>
<path d="M595.829 116.214H595.002V133.198H595.829V116.214Z" fill="#333333"/>
<path d="M615.157 132.416V133.196H605.39V116.213H614.904V116.995H606.217V124.143H614.561V124.925H606.217V132.418H615.157V132.416Z" fill="#333333"/>
<path d="M624.847 132.696C623.86 132.291 623.028 131.742 622.353 131.053L622.881 130.432C623.557 131.076 624.345 131.583 625.248 131.95C626.153 132.318 627.102 132.502 628.101 132.502C629.003 132.502 629.816 132.348 630.536 132.042C631.257 131.734 631.818 131.294 632.226 130.72C632.631 130.144 632.835 129.477 632.835 128.709C632.835 127.882 632.619 127.223 632.191 126.733C631.762 126.243 631.234 125.883 630.605 125.653C629.977 125.422 629.117 125.178 628.03 124.919C626.882 124.658 625.95 124.388 625.237 124.113C624.526 123.838 623.929 123.41 623.445 122.825C622.965 122.244 622.722 121.456 622.722 120.461C622.722 119.601 622.964 118.836 623.445 118.163C623.928 117.487 624.594 116.96 625.444 116.575C626.295 116.194 627.239 116.001 628.282 116.001C629.326 116.001 630.301 116.183 631.213 116.551C632.123 116.921 632.871 117.401 633.454 118L632.947 118.621C632.412 118.055 631.734 117.6 630.915 117.264C630.095 116.928 629.216 116.76 628.282 116.76C627.395 116.76 626.589 116.916 625.871 117.229C625.151 117.544 624.587 117.98 624.179 118.539C623.774 119.1 623.57 119.74 623.57 120.46C623.57 121.256 623.786 121.891 624.214 122.364C624.644 122.841 625.171 123.194 625.8 123.423C626.428 123.653 627.281 123.898 628.352 124.157C629.517 124.435 630.45 124.709 631.156 124.987C631.859 125.262 632.456 125.69 632.947 126.274C633.439 126.857 633.684 127.653 633.684 128.662C633.684 129.597 633.442 130.412 632.958 131.112C632.476 131.808 631.81 132.349 630.959 132.732C630.109 133.116 629.147 133.306 628.076 133.306C626.911 133.305 625.835 133.101 624.847 132.696V132.696Z" fill="#333333"/>
</svg>
