<?xml version="1.0" encoding="utf-8"?>
<!-- Generator: Adobe Illustrator 25.3.1, SVG Export Plug-In . SVG Version: 6.00 Build 0)  -->
<svg version="1.1" id="Ebene_1" xmlns="http://www.w3.org/2000/svg" xmlns:xlink="http://www.w3.org/1999/xlink" x="0px" y="0px"
	 viewBox="0 0 996 162" style="enable-background:new 0 0 996 162;" xml:space="preserve">
<style type="text/css">
	.st0{fill:#333333;}
</style>
<g>
	<path class="st0" d="M84.6,82.6c0,26.9-16.2,44.3-40.7,44.3c-22.6,0-43.9-17-43.9-45.8s20.4-46,44-46c14.8,0,26,5.2,33.8,14.9
		l-9.2,9.1C63.2,52,54.7,47.9,44.5,47.9c-16.7,0-30.6,12.3-30.6,33.1c0,20.5,13.6,32.8,30.1,32.8c15.5,0,24.7-9,26.4-24.2H41.8V77.5
		h42.5C84.4,79.4,84.6,81.1,84.6,82.6L84.6,82.6z"/>
	<path class="st0" d="M165.8,105.1h-33.7l-8.2,20.5h-14.3l38.5-90h2.1l38.4,90h-14.5L165.8,105.1z M148.8,61.3L136,93.5h25.7
		L148.8,61.3z"/>
	<path class="st0" d="M269.6,125.6L237,82.4v43.1h-13.4V37h28.4c20,0,32.2,9,32.2,26c0,15.2-9.7,23.7-27.4,25.2l29.3,37.3H269.6
		L269.6,125.6z M247.9,78.1c15.3,0,22.3-4.7,22.3-14.7c0-9.5-6.2-14.4-19.1-14.4H237v29h10.9V78.1z"/>
	<path class="st0" d="M374.3,105.1h-33.7l-8.2,20.5h-14.4l38.5-90h2.1l38.4,90h-14.8L374.3,105.1z M357.4,61.3l-12.8,32.2h25.7
		L357.4,61.3z"/>
	<path class="st0" d="M511.6,125.6l-9.3-54.3L478,125.7h-2.1l-24.4-54.3l-9.5,54.2h-13.4l16.4-90h2.5l29.3,65.8l29.3-65.8h2.6l16,90
		L511.6,125.6L511.6,125.6z"/>
	<path class="st0" d="M612.9,105.1h-33.7l-8.2,20.5h-14.4l38.5-90h2.1l38.4,90h-14.8L612.9,105.1z M596,61.3l-12.8,32.2h25.7
		L596,61.3z"/>
	<path class="st0" d="M740,37v89.9h-2.5l-53.8-60.6v59.2h-13.4v-90h2.5l53.7,60.7V37H740z"/>
	<path class="st0" d="M804,49.2h-27.1V37h67.5v12.2h-27.1v76.3h-13.4V49.2H804z"/>
	<path class="st0" d="M894.5,37h-13.4v88.5h13.4V37z"/>
	<path class="st0" d="M931.8,113.4l8.2-10.1c7.5,7.2,15.7,10.8,24.7,10.8c11.2,0,17.7-5.2,17.7-13.4c0-20.6-47.4-6.2-47.4-39.5
		c0-15.2,12.7-26.1,31.6-26.1c12.7,0,22.1,4.8,28.5,11.2l-7.7,9.8c-5.3-5.2-11.9-8.5-20.9-8.5c-11.3,0-18,5.3-18,13.3
		c0,19.9,47.5,6.5,47.5,38.8c0,16.5-12.7,27.1-31.6,27.1C949.1,126.7,938.9,120.4,931.8,113.4L931.8,113.4z"/>
</g>
</svg>
